<?xml version="1.0" standalone="no"?>
<!DOCTYPE svg PUBLIC "-//W3C//DTD SVG 20010904//EN"
 "http://www.w3.org/TR/2001/REC-SVG-20010904/DTD/svg10.dtd">
<svg version="1.0" xmlns="http://www.w3.org/2000/svg"
 width="401.000000pt" height="401.000000pt" viewBox="0 0 401.000000 401.000000"
 preserveAspectRatio="xMidYMid meet">
<metadata>
Created by potrace 1.11, written by Peter Selinger 2001-2013
</metadata>
<g transform="translate(0.000000,401.000000) scale(0.100000,-0.100000)"
fill="#000000" stroke="none">
<path d="M1970 3910 c-14 -11 -28 -20 -32 -20 -3 0 -40 -20 -81 -44 -42 -25
-133 -78 -204 -119 -70 -41 -173 -100 -228 -132 -55 -32 -113 -66 -130 -75
-16 -10 -102 -59 -190 -110 -88 -52 -178 -103 -200 -115 -22 -12 -80 -47 -130
-77 l-90 -54 0 -758 c0 -417 2 -761 5 -765 5 -8 48 -33 120 -73 25 -14 99 -57
165 -95 66 -39 226 -131 355 -205 129 -74 280 -161 335 -193 55 -32 118 -69
140 -81 22 -12 76 -42 120 -68 44 -25 83 -46 87 -46 4 0 40 20 80 44 40 24
239 139 441 256 202 117 367 216 365 221 -2 5 -118 78 -258 163 -252 153 -255
154 -280 138 -44 -29 -63 -41 -124 -74 -32 -18 -66 -38 -75 -43 -9 -6 -46 -27
-84 -49 l-67 -38 -128 72 c-70 40 -143 81 -162 92 -19 11 -60 35 -90 53 -30
18 -75 44 -100 57 -25 14 -103 59 -175 101 l-130 75 -2 455 -3 455 178 102
c97 56 231 133 296 171 66 38 120 69 122 69 1 0 44 25 95 56 l94 57 30 -18
c16 -10 48 -28 70 -40 22 -13 96 -55 163 -94 68 -39 128 -71 132 -71 7 0 329
179 498 277 50 28 51 26 -48 80 -30 17 -71 39 -90 50 -346 201 -753 433 -758
433 -4 0 -18 -9 -32 -20z"/>
<path d="M3225 3111 c-55 -32 -174 -101 -265 -153 l-165 -96 0 -457 0 -457 55
-33 c30 -18 71 -42 90 -53 19 -10 113 -65 209 -121 95 -56 175 -100 177 -98 2
2 3 346 2 765 l-3 761 -100 -58z"/>
<path d="M1975 2856 c-11 -7 -99 -59 -196 -115 l-176 -101 1 -237 1 -237 85
-49 c47 -27 103 -59 125 -72 22 -12 74 -42 116 -67 l76 -45 204 118 204 118 0
234 0 235 -45 27 c-25 16 -65 39 -90 53 -25 14 -58 34 -75 44 -16 10 -37 21
-45 25 -8 4 -44 24 -79 45 -72 42 -77 43 -106 24z"/>
<path d="M766 448 c-19 -10 -45 -59 -53 -97 -4 -14 -6 -68 -6 -119 1 -68 5
-99 17 -118 22 -33 59 -46 99 -36 27 7 32 13 32 38 0 26 -4 29 -30 29 -41 0
-56 33 -54 122 2 90 24 134 64 127 22 -4 25 -1 25 26 0 23 -5 31 -22 34 -31 6
-53 4 -72 -6z"/>
<path d="M927 439 c-35 -27 -49 -84 -49 -191 1 -137 34 -187 115 -173 41 8 54
19 68 63 15 45 19 182 7 237 -16 76 -86 108 -141 64z m75 -66 c6 -64 4 -201
-4 -215 -11 -22 -34 -23 -42 -2 -10 26 -7 194 4 215 13 24 39 25 42 2z"/>
<path d="M1128 452 c-16 -3 -18 -20 -18 -187 l0 -184 38 -3 c52 -4 85 8 104
40 47 79 40 294 -11 321 -20 11 -88 19 -113 13z m82 -161 c0 -105 -8 -151 -26
-151 -10 0 -13 29 -13 130 0 125 1 130 20 120 17 -9 19 -22 19 -99z"/>
<path d="M1350 450 l-25 -6 -1 -182 -2 -182 32 0 32 0 -1 184 c0 102 -2 186
-5 189 -3 2 -16 1 -30 -3z"/>
<path d="M1492 449 c-41 -15 -65 -90 -65 -199 1 -107 11 -141 48 -166 21 -14
34 -15 63 -8 32 8 37 13 40 42 3 33 2 34 -26 27 -41 -9 -58 18 -61 94 -4 104
28 172 72 155 17 -6 29 27 17 47 -10 15 -56 20 -88 8z"/>
<path d="M1633 450 c-17 -5 -18 -20 -18 -188 0 -155 2 -182 15 -183 44 -2 112
-1 115 2 1 2 5 15 7 29 3 23 0 25 -32 25 -32 0 -35 3 -40 35 -3 19 -4 47 -2
61 3 22 8 25 33 21 27 -4 29 -2 29 27 0 28 -3 31 -29 31 -31 0 -40 20 -33 68
3 21 8 23 38 20 30 -3 35 -1 41 19 3 13 3 26 1 29 -7 7 -104 10 -125 4z"/>
<path d="M1918 453 c-25 -4 -28 -9 -29 -41 -1 -38 0 -281 0 -318 1 -17 6 -20
31 -16 l30 4 0 189 c0 104 -1 188 -2 188 -2 -1 -15 -4 -30 -6z"/>
<path d="M2002 451 c-6 -4 -10 -75 -11 -189 l0 -182 30 0 c32 0 31 -6 30 125
0 75 -2 75 35 -12 8 -17 14 -34 14 -38 0 -4 7 -22 16 -41 13 -27 22 -34 45
-34 l29 0 0 184 c0 192 -2 199 -42 188 -16 -4 -18 -18 -18 -101 l-1 -96 -33
85 c-18 47 -35 91 -39 97 -9 14 -42 22 -55 14z"/>
<path d="M2255 437 c-46 -40 -38 -97 25 -176 46 -59 54 -87 30 -111 -16 -16
-25 -18 -40 -10 -28 15 -37 12 -44 -12 -7 -30 12 -47 58 -53 44 -6 92 18 100
49 17 62 7 101 -44 170 -27 38 -50 71 -50 75 1 22 21 32 56 29 35 -3 39 0 42
21 5 30 -9 38 -64 39 -32 1 -51 -5 -69 -21z"/>
<path d="M2439 449 c-11 -6 -14 -47 -14 -189 l0 -180 31 0 32 0 1 184 c0 171
-1 184 -18 189 -10 2 -25 1 -32 -4z"/>
<path d="M2580 443 c-33 -23 -54 -99 -54 -192 1 -142 31 -190 109 -175 39 7
47 16 43 45 -2 19 -9 24 -32 24 -46 1 -56 26 -53 128 3 80 6 92 27 109 12 10
31 16 40 13 23 -7 33 30 13 50 -17 18 -67 16 -93 -2z"/>
<path d="M2721 446 c-5 -6 -9 -82 -8 -168 2 -146 4 -159 23 -179 25 -24 85
-33 132 -18 l32 11 0 178 c0 165 -1 178 -19 183 -42 11 -46 -4 -44 -145 2
-163 -1 -180 -29 -176 -30 4 -34 30 -33 185 0 129 0 132 -22 136 -13 2 -27 -1
-32 -7z"/>
<path d="M2943 447 c-8 -14 -8 -351 0 -364 4 -6 18 -8 32 -5 24 4 25 8 25 73
0 38 4 69 9 69 9 0 30 -75 34 -118 1 -18 7 -22 35 -22 l35 0 -5 48 c-3 27 -12
63 -21 81 -14 29 -15 35 -2 55 31 46 24 136 -13 169 -21 19 -119 29 -129 14z
m84 -59 c10 -14 9 -79 -1 -97 -16 -26 -26 -7 -26 49 0 59 8 73 27 48z"/>
<path d="M3193 450 c-47 -20 -58 -55 -58 -185 0 -138 12 -174 60 -187 88 -22
129 33 131 180 2 97 -8 156 -32 179 -18 18 -73 25 -101 13z m61 -86 c12 -46 4
-192 -10 -211 -13 -17 -15 -17 -28 0 -17 22 -20 191 -5 219 14 26 36 22 43 -8z"/>
</g>
</svg>
